<svg id="visual" viewBox="0 0 1920 1080" width="1920" height="1080" xmlns="http://www.w3.org/2000/svg" xmlns:xlink="http://www.w3.org/1999/xlink" version="1.1"><rect x="0" y="0" width="1920" height="1080" fill="#001220"></rect><defs><linearGradient id="grad1_0" x1="43.8%" y1="0%" x2="100%" y2="100%"><stop offset="14.444444444444446%" stop-color="#001220" stop-opacity="1"></stop><stop offset="85.55555555555554%" stop-color="#001220" stop-opacity="1"></stop></linearGradient></defs><defs><linearGradient id="grad2_0" x1="0%" y1="0%" x2="56.3%" y2="100%"><stop offset="14.444444444444446%" stop-color="#001220" stop-opacity="1"></stop><stop offset="85.55555555555554%" stop-color="#001220" stop-opacity="1"></stop></linearGradient></defs><g transform="translate(1920, 0)"><path d="M0 810C-107.6 799.3 -215.1 788.6 -310 748.3C-404.8 708.1 -487 638.3 -562.1 562.1C-637.3 486 -705.4 403.6 -745.6 308.8C-785.7 214.1 -797.9 107 -810 0L0 0Z" fill="#FBAE3C"></path></g><g transform="translate(0, 1080)"><path d="M0 -810C100.3 -778.4 200.7 -746.8 292 -704.9C383.3 -663 465.5 -610.9 545.9 -545.9C626.2 -480.9 704.6 -403.1 748.3 -310C792 -216.9 801 -108.4 810 0L0 0Z" fill="#FBAE3C"></path></g></svg>